<svg width="24" height="24" viewBox="0 0 24 24" fill="#182431" xmlns="http://www.w3.org/2000/svg">
  <path d="M13.5 3L14.2 5.2C14.7 5.4 15.2 5.6 15.7 5.9L17.8 4.8L19.2 6.2L18.1 8.3C18.4 8.8 18.6 9.3 18.8 9.8L21 10.5V13.5L18.8 14.2C18.6 14.7 18.4 15.2 18.1 15.7L19.2 17.8L17.8 19.2L15.7 18.1C15.2 18.4 14.7 18.6 14.2 18.8L13.5 21H10.5L9.8 18.8C9.3 18.6 8.8 18.4 8.3 18.1L6.2 19.2L4.8 17.8L5.9 15.7C5.6 15.2 5.4 14.7 5.2 14.2L3 13.5V10.5L5.2 9.8C5.4 9.3 5.6 8.8 5.9 8.3L4.8 6.2L6.2 4.8L8.3 5.9C8.8 5.6 9.3 5.4 9.8 5.2L10.5 3H13.5ZM12 9C10.3 9 9 10.3 9 12C9 13.7 10.3 15 12 15C13.7 15 15 13.7 15 12C15 10.3 13.7 9 12 9Z"/>
</svg>
