<svg width="24" height="24" viewBox="0 0 24 24" fill="#182431" xmlns="http://www.w3.org/2000/svg">
  <path d="M8.5 14.5L6.8 16.2C5.8 17.2 4.2 17.2 3.2 16.2C2.2 15.2 2.2 13.6 3.2 12.6L7.1 8.7C8.1 7.7 9.7 7.7 10.7 8.7L12.1 7.3C10.3 5.5 7.5 5.5 5.7 7.3L1.8 11.2C0 13 0 15.8 1.8 17.6C3.6 19.4 6.4 19.4 8.2 17.6L9.9 15.9L8.5 14.5Z"/>
  <path d="M15.5 9.5L17.2 7.8C18.2 6.8 19.8 6.8 20.8 7.8C21.8 8.8 21.8 10.4 20.8 11.4L16.9 15.3C15.9 16.3 14.3 16.3 13.3 15.3L11.9 16.7C13.7 18.5 16.5 18.5 18.3 16.7L22.2 12.8C24 11 24 8.2 22.2 6.4C20.4 4.6 17.6 4.6 15.8 6.4L14.1 8.1L15.5 9.5Z"/>
  <path d="M8 15L15 8L16.4 9.4L9.4 16.4L8 15Z"/>
</svg>
